solid cutter_tip_15mm
  facet normal 0 -0.768221 0.640184
    outer loop
      vertex -0.0125 -0.0125 -0.0075
      vertex 0.0125 -0.0125 -0.0075
      vertex 0 0 0.0075
    endloop
  endfacet
  facet normal 0.768221 0 0.640184
    outer loop
      vertex 0.0125 -0.0125 -0.0075
      vertex 0.0125 0.0125 -0.0075
      vertex 0 0 0.0075
    endloop
  endfacet
  facet normal 0 0.768221 0.640184
    outer loop
      vertex 0.0125 0.0125 -0.0075
      vertex -0.0125 0.0125 -0.0075
      vertex 0 0 0.0075
    endloop
  endfacet
  facet normal -0.768221 0 0.640184
    outer loop
      vertex -0.0125 0.0125 -0.0075
      vertex -0.0125 -0.0125 -0.0075
      vertex 0 0 0.0075
    endloop
  endfacet
  facet normal 0 0 -1
    outer loop
      vertex -0.0125 -0.0125 -0.0075
      vertex -0.0125 0.0125 -0.0075
      vertex 0.0125 0.0125 -0.0075
    endloop
  endfacet
  facet normal 0 0 -1
    outer loop
      vertex -0.0125 -0.0125 -0.0075
      vertex 0.0125 0.0125 -0.0075
      vertex 0.0125 -0.0125 -0.0075
    endloop
  endfacet
endsolid cutter_tip_15mm
